<svg id="Layer_1" enable-background="new 0 0 512.018 512.018" height="512" viewBox="0 0 512.018 512.018" width="512" xmlns="http://www.w3.org/2000/svg"><g><g clip-rule="evenodd" fill-rule="evenodd"><path d="m221.088 228.73c-18.073-27.209-54.433-36.018-83.113-19.46-29.835 17.225-40.057 55.374-22.832 85.209 46.15-21.999 77.213 10.77 73.032 45.773-3.724 31.178-35.158 61.194-50.87 71.965-8.448 5.792-17.121 10.451-25.931 13.866l.306 75.935c106.308-46.759 146.956-144.561 120.544-239.677l23.784-28.545z" fill="#e3eaef"/><path d="m188.175 340.252c4.181-35.003-26.882-67.772-73.032-45.773-39.174 21.208-64.664 87.44-105.135 110.806 32.507 28.825 67.917 33.769 101.366 20.799 8.809-3.416 17.482-8.074 25.931-13.866 15.712-10.772 47.146-40.788 50.87-71.966z" fill="#c5d3de"/><path d="m279.794 262.342c-26.412 95.116 14.236 192.917 120.544 239.677l.306-75.935c-8.809-3.416-17.482-8.074-25.931-13.866-15.712-10.772-47.146-40.788-50.87-71.965-4.181-35.003 26.882-67.772 73.032-45.773 17.225-29.835 7.003-67.984-22.832-85.209-28.68-16.559-65.04-7.75-83.113 19.46l-34.921 5.067z" fill="#e3eaef"/><path d="m323.843 340.252c3.724 31.178 35.158 61.194 50.87 71.965 8.448 5.792 17.121 10.45 25.931 13.866 33.449 12.97 68.859 8.027 101.366-20.799-40.471-23.366-65.961-89.598-105.135-110.806-46.15-21.998-77.212 10.771-73.032 45.774z" fill="#c5d3de"/><g><path d="m291.684 50.905c-11.909-2.613-25.201.405-35.675 10.879-31.339-31.339-87.913 4.072-57.149 57.358 14.159 24.524 42.715 47.008 57.149 50.875 14.434-3.867 42.99-26.351 57.148-50.875 5.955-10.313 8.637-19.957 8.864-28.577.556-21.031-13.509-35.968-30.337-39.66z" fill="#ff5d7d"/><path d="m291.684 50.905c16.828 3.692 30.892 18.628 30.338 39.66 6.809 5.326 13.339 9.083 17.958 10.32 10.93-2.929 32.554-19.955 43.276-38.525 23.296-40.351-19.544-67.165-43.276-43.434-21.401-21.401-58.335-1.691-48.296 31.979z" fill="#ff9eb1"/></g></g><g><path d="m511.959 404.278c-.324-3.197-2.165-6.045-4.949-7.652-18.363-10.603-34.371-32.299-49.853-53.28-14.514-19.671-29.458-39.924-47.341-52.557 6.115-14.814 7.13-31.162 2.784-46.837-15.468-57.407-91.885-71.723-127.335-24.505l-29.256 4.245-29.257-4.245c-21.823-28.73-62.104-37.121-93.777-18.837-16.516 9.535-28.427 24.903-33.538 43.274-4.366 15.691-3.358 32.066 2.765 46.904-17.884 12.633-32.828 32.886-47.342 52.557-15.481 20.981-31.488 42.678-49.853 53.28-2.784 1.607-4.625 4.455-4.949 7.652-.324 3.198.909 6.357 3.314 8.49 21.641 19.188 45.254 29.3 70.185 30.054 1.006.03 2.009.046 3.015.046 8.302 0 16.598-1.038 24.856-3.102l.251 62.292c.014 3.371 1.725 6.509 4.552 8.346 2.832 1.84 6.398 2.123 9.475.768 100.182-42.597 154.804-141.993 127.51-246.4l12.793-15.354 12.793 15.354c-27.288 104.419 27.324 203.792 127.51 246.4 3.075 1.355 6.643 1.072 9.475-.768 2.827-1.837 4.538-4.975 4.552-8.346l.25-62.292c9.265 2.312 18.514 3.336 27.872 3.056 24.931-.754 48.544-10.865 70.185-30.054 2.404-2.132 3.637-5.291 3.313-8.489zm-287.418-148.338c-2.102 2.521-2.831 5.914-1.953 9.077 25.332 91.223-14.166 176.533-100.972 221.197l-.215-53.478c7.24-3.294 14.432-7.386 21.556-12.27 2.129-1.458 4.411-3.161 6.784-5.062 4.311-3.453 5.006-9.746 1.553-14.057-3.454-4.311-9.746-5.004-14.057-1.553-1.986 1.591-3.865 2.995-5.587 4.175-25.699 17.618-63.977 31.252-104.915 1.917 33.462-25.54 58.351-82.594 92.945-102.492 16.004-7.563 30.957-8.01 42.128-1.25 9.978 6.036 16.224 17.329 16.71 30.206.209 5.52 4.889 9.835 10.37 9.616 5.52-.209 9.824-4.852 9.616-10.37-.741-19.625-10.589-37.032-26.343-46.564-14.793-8.949-33.002-10.079-52.06-3.409-20.075-58.517 56.756-98.285 92.656-47.36 1.573 2.368 4.08 3.955 6.895 4.363l17.231 2.5zm165.861 230.274c-86.805-44.663-126.303-129.974-100.972-221.197.878-3.163.148-6.556-1.953-9.077l-12.343-14.813 17.231-2.5c2.814-.408 5.321-1.995 6.895-4.363 15.245-22.95 45.898-30.123 69.783-16.333 22.302 12.877 31.623 40.216 22.869 63.706-20.522-7.127-40.331-5.214-55.446 5.632-16.488 11.832-25.13 32.589-22.553 54.171 7.161 45.111 50.215 79.441 76.703 91.298zm-10.035-82.245c-16.356-11.214-43.471-38.75-46.595-64.902-1.714-14.345 3.786-27.967 14.354-35.549 13.229-9.232 29.071-7.179 44.212-.123 34.61 19.915 59.466 76.934 92.944 102.491-40.939 29.336-79.217 15.7-104.915-1.917z"/><path d="m328.306 253.373c13.268-.529 13.258-19.476 0-20h-.008c-13.268.531-13.25 19.478.008 20z"/><path d="m183.713 233.373c-13.268.529-13.258 19.476 0 20h.007c13.269-.53 13.251-19.477-.007-20z"/><path d="m253.421 179.676c1.695.455 3.481.455 5.176 0 21.26-5.571 61.785-41.206 70.71-72.389 2.68 1.388 5.425 2.545 8.085 3.258 1.695.455 3.48.455 5.176 0 13.661-3.66 37.288-22.296 49.348-43.185 14.829-25.684 7.041-48.25-7.256-59.221-13.316-10.217-30.937-10.68-44.669-1.968-12.331-7.864-27.8-8.345-40.757-.686-12.457 7.365-19.332 20.233-19.223 34.702-8.42.66-16.704 3.55-24.003 8.61-17.246-11.959-39.999-11.8-57.05 1.283-16.47 12.638-28.646 39.616-8.759 74.06 15.088 26.134 45.822 50.874 63.222 55.536zm55.992-156.973c5.857-3.46 15.524-4.676 23.496 3.296 3.906 3.904 10.236 3.904 14.143 0 8.362-8.36 19.045-6.893 25.433-1.991 24.039 19.605-15.266 58.674-32.48 66.252-2.057-.94-4.78-2.485-8.016-4.749-1.163-15.785-9.314-28.05-18.928-35.428-4.022-3.086-8.361-5.452-12.87-7.111-1.079-8.74 2.198-16.116 9.222-20.269zm-98.279 43.247c11.171-8.404 26.793-8.278 37.804 2.906 3.724 3.873 10.418 3.873 14.143 0 12.407-12.408 28.293-10.203 37.804-2.906 34.797 28.268-19.681 83.277-44.875 93.525-25.259-10.29-79.65-65.28-44.876-93.525z"/><path d="m174.098 364.614h-.007c-5.522 0-9.996 4.478-9.996 10 .528 13.263 19.478 13.262 20.003 0 0-5.523-4.478-10-10-10z"/></g></g></svg>