<svg id="Capa_1" enable-background="new 0 0 497 497" height="512" viewBox="0 0 497 497" width="512" xmlns="http://www.w3.org/2000/svg"><g><path d="m248.5 0v497c4.966 0 9.355-2.424 12.106-6.141 0 0 140.027-191.036 140.011-191.036 22.868-31.196 36.383-69.679 36.383-111.323 0-104.106-84.394-188.5-188.5-188.5z" fill="#ff837a"/><path d="m258.679 490.859s117.741-191.036 117.728-191.036c19.229-31.196 30.593-69.679 30.593-111.323 0-104.106-70.963-188.5-158.5-188.5-104.106 0-188.5 84.394-188.5 188.5 0 41.644 13.515 80.127 36.383 111.322-.016 0 140.011 191.036 140.011 191.036 2.751 3.718 7.14 6.141 12.106 6.141 4.176.001 7.866-2.423 10.179-6.14z" fill="#ffa18c"/><path d="m248.5 60c-70.969 0-128.5 57.531-128.5 128.5s57.531 128.5 128.5 128.5 128.5-57.531 128.5-128.5-57.531-128.5-128.5-128.5z" fill="#ffcfbf"/><circle cx="248.5" cy="188.5" fill="#fff" r="98.5"/><path d="m276.791 137.058c-2.938 0-5.792.353-8.529 1.008l-19.762 117.62c1.404 0 2.809-.395 4.039-1.185 14.167-9.1 60.748-41.982 60.756-80.934-.001-20.16-16.344-36.509-36.504-36.509z" fill="#ff5474"/><path d="m250.669 254.501c7.607-9.1 32.622-41.982 32.626-80.934 0-17.229-6.412-31.664-15.033-35.501-7.893 1.89-14.791 6.339-19.762 12.428-6.694-8.199-16.88-13.436-28.291-13.436-20.16 0-36.504 16.348-36.504 36.509.008 38.952 46.589 71.834 60.756 80.934 1.23.79 2.634 1.185 4.039 1.185-.754 0-1.508-.395-2.169-1.185.66.79 1.415 1.185 2.169 1.185s1.508-.395 2.169-1.185z" fill="#ff7a94"/></g></svg>