<?xml version="1.0" encoding="iso-8859-1"?>
<!-- Generator: Adobe Illustrator 21.0.0, SVG Export Plug-In . SVG Version: 6.00 Build 0)  -->
<svg xmlns="http://www.w3.org/2000/svg" xmlns:xlink="http://www.w3.org/1999/xlink" version="1.1" id="Capa_1" x="0px" y="0px" viewBox="0 0 512 512" style="enable-background:new 0 0 512 512;" xml:space="preserve" width="512" height="512">
<g>
	<path style="fill:#FFBFE4;" d="M424.5,48.995h-257c-44.183,0-80,35.817-80,80v107.841c0,44.183,35.817,80,80,80h111.573   c5.304,0,10.391,2.107,14.142,5.858l34.579,34.579c7.81,7.81,20.474,7.81,28.284,0l34.579-34.579   c3.751-3.751,8.838-5.858,14.142-5.858h19.7c44.183,0,80-35.817,80-80V128.995C504.5,84.813,468.683,48.995,424.5,48.995z"/>
	<path style="fill:#EFEDF2;" d="M87.5,148.869h256.999c44.183,0,80,35.817,80,80V336.71c0,44.183-35.817,80-80,80H232.927   c-5.304,0-10.391,2.107-14.142,5.858l-34.579,34.579c-7.81,7.81-20.474,7.81-28.284,0l-34.579-34.579   c-3.751-3.751-8.838-5.858-14.142-5.858H87.5c-44.183,0-80-35.817-80-80V228.869C7.5,184.686,43.317,148.869,87.5,148.869z"/>
	<path style="fill:#E5DAEA;" d="M354.032,149.454c6.302,11.435,9.896,24.572,9.896,38.551v107.841c0,44.183-35.817,80-80,80H26.928   c-3.228,0-6.405-0.213-9.533-0.585C31.011,399.967,57.297,416.71,87.5,416.71h19.7c5.304,0,10.391,2.107,14.142,5.858   l34.579,34.579c7.81,7.811,20.474,7.811,28.284,0l34.579-34.579c3.751-3.751,8.838-5.858,14.142-5.858H344.5   c44.183,0,80-35.817,80-80V228.869C424.5,187.914,393.718,154.169,354.032,149.454z"/>
	<path style="fill:#FF5578;" d="M214,234.954c-81.4-60.922-135.341,63.353,0,123.44C349.341,298.307,295.4,174.032,214,234.954z"/>
	<path style="fill:#ED3C61;" d="M260.277,218.778c4.809,30.878-16.362,74.976-81.845,104.047   c-12.9-5.727-24.075-12.038-33.676-18.716c12.587,19.512,34.773,38.98,69.245,54.284   C320.829,310.965,309.727,223.546,260.277,218.778z"/>
</g>
<g>
	<path d="M285.024,409.21h-52.098c-7.345,0-14.251,2.86-19.445,8.055l-34.579,34.579c-2.361,2.361-5.5,3.661-8.839,3.661   s-6.478-1.3-8.839-3.661l-34.58-34.58c-5.194-5.194-12.1-8.054-19.445-8.054H87.5c-39.977,0-72.5-32.523-72.5-72.5v-50.53   c0-4.142-3.358-7.5-7.5-7.5s-7.5,3.358-7.5,7.5v50.53c0,48.248,39.252,87.5,87.5,87.5h19.7c3.339,0,6.478,1.3,8.839,3.661   l34.579,34.579c5.194,5.194,12.1,8.055,19.445,8.055c7.345,0,14.251-2.86,19.445-8.055l34.579-34.579   c2.361-2.361,5.5-3.661,8.839-3.661h52.098c4.143,0,7.5-3.358,7.5-7.5S289.167,409.21,285.024,409.21z"/>
	<path d="M424.5,41.495h-89.395c-4.143,0-7.5,3.358-7.5,7.5s3.357,7.5,7.5,7.5H424.5c39.977,0,72.5,32.523,72.5,72.5v107.841   c0,37.444-28.535,68.349-65,72.115v-80.083c0-48.248-39.252-87.5-87.5-87.5H95v-12.373c0-39.977,32.523-72.5,72.5-72.5h132.605   c4.143,0,7.5-3.358,7.5-7.5s-3.357-7.5-7.5-7.5H167.5c-48.248,0-87.5,39.252-87.5,87.5v12.692c-44.75,3.816-80,41.46-80,87.181   v22.311c0,4.142,3.358,7.5,7.5,7.5s7.5-3.358,7.5-7.5v-22.311c0-39.977,32.523-72.5,72.5-72.5h256.999   c39.977,0,72.5,32.523,72.5,72.5V336.71c0,39.977-32.523,72.5-72.5,72.5h-24.475c-4.143,0-7.5,3.358-7.5,7.5s3.357,7.5,7.5,7.5   h24.475c48.248,0,87.5-39.252,87.5-87.5v-12.692C476.75,320.201,512,282.558,512,236.836V128.995   C512,80.748,472.748,41.495,424.5,41.495z"/>
	<path d="M278.147,216.317c-18.209-9.472-41.359-6.003-64.147,9.43c-22.789-15.433-45.938-18.9-64.148-9.43   c-16.839,8.758-26.492,26.971-25.82,48.719c0.55,17.799,7.927,36.026,21.333,52.711c15.235,18.961,37.303,34.942,65.591,47.501   c0.969,0.43,2.006,0.645,3.043,0.645s2.074-0.215,3.043-0.645c28.288-12.559,50.356-28.541,65.591-47.501   c13.406-16.686,20.783-34.913,21.333-52.711C304.64,243.288,294.987,225.075,278.147,216.317z M288.975,264.573   c-0.313,10.123-3.695,25.934-18.033,43.779c-13.184,16.408-32.33,30.463-56.941,41.81c-24.611-11.347-43.758-25.403-56.941-41.81   c-14.338-17.845-17.721-33.657-18.034-43.779c-0.489-15.849,6.146-28.913,17.749-34.948c4.577-2.38,9.691-3.552,15.18-3.552   c11.415,0,24.44,5.071,37.553,14.885c2.664,1.994,6.324,1.994,8.988,0c19.417-14.533,38.637-18.664,52.732-11.333   C282.83,235.659,289.465,248.724,288.975,264.573z"/>
</g>















</svg>
