<svg id="Capa_1" enable-background="new 0 0 512 512" height="512" viewBox="0 0 512 512" width="512" xmlns="http://www.w3.org/2000/svg"><g><g><path d="m271 106v60c0 8.399-6.599 15-15 15s-15-6.601-15-15v-60c0-8.401 6.599-15 15-15s15 6.599 15 15z" fill="#735c5c"/></g><path d="m256 181v-90c8.401 0 15 6.599 15 15v60c0 8.399-6.599 15-15 15z" fill="#594848"/><g><path d="m346 482-30 15h-120l-30-15c24.901 0 45-20.101 45-45v-91h90v91c0 24.899 20.099 45 45 45z" fill="#fb9"/></g><path d="m346 482-30 15h-60v-151h45v91c0 24.899 20.099 45 45 45z" fill="#ff9680"/><g><path d="m106 181c-8.291 0-15-6.709-15-15v-60c0-8.291 6.709-15 15-15s15 6.709 15 15v60c0 8.291-6.709 15-15 15z" fill="#e1e6f0"/></g><g><path d="m106 121c-24.814 0-45-20.186-45-45v-61c0-8.291 6.709-15 15-15h60c8.291 0 15 6.709 15 15v61c0 24.814-20.186 45-45 45z" fill="#f3f5f9"/></g><g><path d="m406 181c-8.291 0-15-6.709-15-15v-60c0-8.291 6.709-15 15-15s15 6.709 15 15v60c0 8.291-6.709 15-15 15z" fill="#cfd7e6"/></g><g><path d="m406 121c-24.814 0-45-20.186-45-45v-61c0-8.291 6.709-15 15-15h60c8.291 0 15 6.709 15 15v61c0 24.814-20.186 45-45 45z" fill="#e1e6f0"/></g><g><path d="m391 497c0 8.399-6.599 15-15 15h-240c-8.401 0-15-6.601-15-15 0-8.401 6.599-15 15-15h240c8.401 0 15 6.599 15 15z" fill="#ffd9b3"/></g><path d="m391 497c0 8.399-6.599 15-15 15h-120v-30h120c8.401 0 15 6.599 15 15z" fill="#fb9"/><path d="m485.474 269.453-229.474-.013-221.58-.013-34.42 44.998v61.575c0 8.291 6.709 15 15 15 23.262 0 33.633-11.558 41.162-19.995 5.977-6.665 9.965-10.005 19.838-10.005s12.861 3.34 18.838 10.005c7.529 8.437 17.9 19.995 41.162 19.995s33.633-11.558 41.162-19.995c5.977-6.665 8.965-10.005 18.838-10.005s12.861 3.34 18.838 10.005c7.529 8.437 17.9 19.995 41.162 19.995s33.633-11.558 41.162-19.995c5.977-6.665 8.965-10.005 18.838-10.005s12.861 3.34 18.838 10.005c7.529 8.437 17.9 19.995 41.162 19.995s33.633-11.558 41.162-19.995c5.977-6.665 8.965-10.005 18.838-10.005s12.861 3.34 18.838 10.005c7.529 8.437 18.9 19.995 42.162 19.995 8.291 0 15-6.709 15-15v-61.545z" fill="#e1e6f0"/><path d="m297.162 371.005c5.977-6.665 8.965-10.005 18.838-10.005s12.861 3.34 18.838 10.005c7.529 8.437 17.9 19.995 41.162 19.995s33.633-11.558 41.162-19.995c5.977-6.665 8.965-10.005 18.838-10.005s12.861 3.34 18.838 10.005c7.529 8.437 18.9 19.995 42.162 19.995 8.291 0 15-6.709 15-15v-61.545l-26.526-45.002-229.474-.013v121.56c23.262 0 33.633-11.558 41.162-19.995z" fill="#cfd7e6"/><path d="m466 151h-210-211c-24.814 0-45 20.186-45 45v118.425c31.003 5.257 44.262-5.09 56.162-18.42 5.977-6.665 9.965-10.005 19.838-10.005s12.861 3.34 18.838 10.005c7.529 8.437 17.9 19.995 41.162 19.995s33.633-11.558 41.162-19.995c5.977-6.665 8.965-10.005 18.838-10.005s12.861 3.34 18.838 10.005c7.529 8.437 17.9 19.995 41.162 19.995s33.633-11.558 41.162-19.995c5.977-6.665 8.965-10.005 18.838-10.005s12.861 3.34 18.838 10.005c7.529 8.437 17.9 19.995 41.162 19.995s33.633-11.558 41.162-19.995c5.977-6.665 8.965-10.005 18.838-10.005s12.861 3.34 18.838 10.005c9.785 10.928 21.303 19.995 41.898 19.995 4.51 0 9.688-.599 15.264-1.545v-118.455c0-24.814-21.186-45-46-45z" fill="#f3f5f9"/><path d="m297.162 296.005c5.977-6.665 8.965-10.005 18.838-10.005s12.861 3.34 18.838 10.005c7.529 8.437 17.9 19.995 41.162 19.995s33.633-11.558 41.162-19.995c5.977-6.665 8.965-10.005 18.838-10.005s12.861 3.34 18.838 10.005c9.785 10.928 21.303 19.995 41.898 19.995 4.51 0 9.688-.599 15.264-1.545v-118.455c0-24.814-21.186-45-46-45h-210v165c23.262 0 33.633-11.558 41.162-19.995z" fill="#e1e6f0"/><path d="m285.238.015c-12.92 0-22.031 4.863-29.238 11.265-7.178-6.401-17.842-11.265-30.762-11.265-25.225 0-45 18.955-45 43.169 0 25.503 21.211 41.986 50.566 63.432l15.439 11.396c2.895 2.179 6.332 2.939 9.756 2.756 2.902-.156 5.806-.928 8.232-2.756l15.381-11.323c29.385-21.475 50.625-37.987 50.625-63.505.001-24.214-19.774-43.169-44.999-43.169z" fill="#ff8c9f"/><path d="m279.613 106.688c29.385-21.475 50.625-37.987 50.625-63.505 0-24.214-19.775-43.169-45-43.169-12.92 0-22.031 4.863-29.238 11.265v109.488c2.902-.156 5.806-.928 8.232-2.756z" fill="#f255a3"/></g></svg>